#!OML:ASF E:\acrobat2\Project_11_07_03\Capture day 1\Session 1\Acrobat.ASF
:FULLY-SPECIFIED
:DEGREES
517
root 10.6926 6.08317 11.6853 -88.6282 4.33296 181.287
lowerback -4.20722 -2.51242 4.54951
upperback -0.385804 -3.55627 -0.044007
thorax 1.67963 -1.74215 -2.78166
lowerneck 4.19411 -16.6812 -6.69092
upperneck -28.96 -18.0936 28.7486
head -5.61884 -9.89801 11.2063
rclavicle 2.8625e-014 8.00108e-015
rhumerus 29.9673 -31.3742 -32.5113
rradius 118.517
rwrist -19.8621
rhand -19.869 -42.5475
rfingers 7.12502
rthumb 6.46629 -72.4288
lclavicle 2.8625e-014 8.00108e-015
lhumerus 19.5095 45.266 3.29626
lradius 108.325
lwrist 31.564
lhand -3.51212 -25.0497
lfingers 7.12502
lthumb 22.2224 3.69282
rfemur -2.47431 18.0722 -8.30556
rtibia 6.71564
rfoot 26.3692 -25.1687
rtoes 24.5675
lfemur -9.44215 -20.9678 1.83975
ltibia 18.1992
lfoot 34.8372 12.5317
ltoes 20.5001
518
root 10.7017 6.08006 11.6651 -88.4897 4.29646 181.113
lowerback -4.39567 -2.54564 4.59364
upperback -0.390966 -3.61404 0.0245614
thorax 1.7769 -1.76847 -2.74837
lowerneck 4.28454 -16.6397 -6.83784
upperneck -29.0299 -18.0426 28.7868
head -5.64195 -9.86986 11.2607
rclavicle -3.33958e-014 3.37934e-015
rhumerus 29.8936 -31.3551 -32.4056
rradius 118.8
rwrist -20.0481
rhand -19.9221 -42.5053
rfingers 7.12502
rthumb 6.41498 -72.3881
lclavicle -3.33958e-014 3.37934e-015
lhumerus 19.3379 45.3166 3.42956
lradius 108.442
lwrist 31.5185
lhand -3.59038 -25.0485
lfingers 7.12502
lthumb 22.1473 3.7029
rfemur -2.57459 17.8434 -8.3784
rtibia 6.42753
rfoot 27.8521 -25.2431
rtoes 25.0716
lfemur -9.72425 -21.0749 2.00445
ltibia 18.1368
lfoot 35.2345 12.7803
ltoes 20.674
519
root 10.7103 6.07592 11.6485 -88.3634 4.24827 180.947
lowerback -4.57665 -2.57615 4.65136
upperback -0.393662 -3.66883 0.0894314
thorax 1.87171 -1.79319 -2.72625
lowerneck 4.41283 -16.5769 -6.98334
upperneck -29.1241 -17.9653 28.767
head -5.69271 -9.8251 11.3063
rclavicle -2.8625e-014 4.34841e-015
rhumerus 29.8314 -31.352 -32.2902
rradius 119.054
rwrist -20.2284
rhand -19.9873 -42.4942
rfingers 7.12502
rthumb 6.35206 -72.379
lclavicle -2.8625e-014 4.34841e-015
lhumerus 19.1804 45.3782 3.53622
lradius 108.542
lwrist 31.4992
lhand -3.66397 -25.0478
lfingers 7.12502
lthumb 22.0766 3.71194
rfemur -2.60478 17.6278 -8.4573
rtibia 6.03532
rfoot 29.2393 -25.348
rtoes 25.3957
lfemur -10.0015 -21.1739 2.17305
ltibia 18.0931
lfoot 35.6671 13.0719
ltoes 20.9724
520
root 10.719 6.07083 11.6365 -88.2447 4.18399 180.797
lowerback -4.75437 -2.60242 4.72004
upperback -0.394905 -3.719 0.160227
thorax 1.9663 -1.81549 -2.704
lowerneck 4.51453 -16.5096 -7.12716
upperneck -29.1839 -17.8901 28.7196
head -5.7318 -9.77758 11.3356
rclavicle -3.18055e-015 2.17172e-014
rhumerus 29.7818 -31.3647 -32.158
rradius 119.286
rwrist -20.4044
rhand -20.0669 -42.5219
rfingers 7.12502
rthumb 6.27523 -72.409
lclavicle -3.18055e-015 2.17172e-014
lhumerus 19.0044 45.4537 3.60805
lradius 108.635
lwrist 31.5092
lhand -3.74452 -25.05
lfingers 7.12502
lthumb 21.9993 3.71893
rfemur -2.53287 17.4294 -8.53558
rtibia 5.47821
rfoot 30.4996 -25.5206
rtoes 25.6531
lfemur -10.2786 -21.2186 2.35069
ltibia 18.0894
lfoot 36.1164 13.3336
ltoes 21.2312
521
root 10.7276 6.06507 11.6288 -88.1396 4.11548 180.656
lowerback -4.92215 -2.62825 4.78887
upperback -0.395628 -3.76872 0.238096
thorax 2.05638 -1.83767 -2.6742
lowerneck 4.59551 -16.4407 -7.28669
upperneck -29.2138 -17.8236 28.6471
head -5.75779 -9.72952 11.3519
rclavicle -2.54444e-014 -5.31997e-014
rhumerus 29.7478 -31.3852 -32.0082
rradius 119.499
rwrist -20.5667
rhand -20.1604 -42.5953
rfingers 7.12502
rthumb 6.18498 -72.485
lclavicle -2.54444e-014 -5.31997e-014
lhumerus 18.7921 45.5393 3.64622
lradius 108.73
lwrist 31.5547
lhand -3.82576 -25.058
lfingers 7.12502
lthumb 21.9213 3.72007
rfemur -2.30637 17.2445 -8.62148
rtibia 4.68512
rfoot 31.6926 -25.6961
rtoes 25.5664
lfemur -10.5526 -21.2026 2.51963
ltibia 18.1396
lfoot 36.5479 13.5159
ltoes 21.3471
522
root 10.7367 6.05838 11.6241 -88.0556 4.03736 180.514
lowerback -5.07837 -2.65754 4.85368
upperback -0.396611 -3.82296 0.32757
thorax 2.14045 -1.86234 -2.63003
lowerneck 4.66973 -16.374 -7.47261
upperneck -29.2222 -17.7665 28.5891
head -5.76882 -9.68539 11.3723
rclavicle -4.6118e-014 3.05631e-014
rhumerus 29.7321 -31.4066 -31.843
rradius 119.694
rwrist -20.7095
rhand -20.2609 -42.6993
rfingers 7.12502
rthumb 6.08797 -72.5919
lclavicle -4.6118e-014 3.05631e-014
lhumerus 18.5385 45.623 3.64695
lradius 108.824
lwrist 31.6377
lhand -3.91438 -25.0692
lfingers 7.12502
lthumb 21.8362 3.71879
rfemur -1.88278 17.0858 -8.69754
rtibia 3.61657
rfoot 32.861 -25.8361
rtoes 25.0933
lfemur -10.8051 -21.1339 2.68489
ltibia 18.2285
lfoot 36.9449 13.5765
ltoes 21.3111
523
root 10.7464 6.05109 11.6207 -87.996 3.92991 180.385
lowerback -5.2149 -2.68547 4.93276
upperback -0.396238 -3.87613 0.433232
thorax 2.21525 -1.88669 -2.57619
lowerneck 4.75257 -16.3043 -7.69836
upperneck -29.221 -17.7095 28.5593
head -5.76963 -9.64156 11.4069
rclavicle -4.29375e-014 3.67752e-015
rhumerus 29.742 -31.4328 -31.6727
rradius 119.866
rwrist -20.8396
rhand -20.3525 -42.8054
rfingers 7.12502
rthumb 5.9995 -72.7005
lclavicle -4.29375e-014 3.67752e-015
lhumerus 18.2521 45.7022 3.60956
lradius 108.909
lwrist 31.7549
lhand -4.01717 -25.0738
lfingers 7.12502
lthumb 21.7375 3.72567
rfemur -1.17704 16.9467 -8.74965
rtibia 2.10305
rfoot 34.0714 -26.0073
rtoes 24.4886
lfemur -11.0065 -21.0298 2.86508
ltibia 18.3323
lfoot 37.2775 13.4654
ltoes 21.0318
524
root 10.7565 6.04354 11.6174 -87.9541 3.79888 180.266
lowerback -5.33724 -2.71371 5.01739
upperback -0.394029 -3.9301 0.550985
thorax 2.28449 -1.91154 -2.51243
lowerneck 4.8414 -16.2406 -7.92538
upperneck -29.233 -17.6486 28.5993
head -5.76678 -9.60316 11.4673
rclavicle 3.18055e-015 -2.80535e-014
rhumerus 29.7739 -31.4649 -31.5079
rradius 120.019
rwrist -20.9625
rhand -20.4228 -42.9017
rfingers 7.12502
rthumb 5.93159 -72.7987
lclavicle 3.18055e-015 -2.80535e-014
lhumerus 17.9553 45.7788 3.54389
lradius 108.974
lwrist 31.8926
lhand -4.1117 -25.0901
lfingers 7.12502
lthumb 21.6467 3.71987
rfemur -0.123339 16.8326 -8.79747
rtibia -2.72335e-014
rfoot 35.4124 -26.2097
rtoes 23.7265
lfemur -11.159 -20.9115 3.05598
ltibia 18.4356
lfoot 37.5038 13.2418
ltoes 20.6375
525
root 10.7669 6.03647 11.614 -87.9381 3.66583 180.167
lowerback -5.42684 -2.7405 5.08897
upperback -0.387185 -3.98003 0.670809
thorax 2.34165 -1.9348 -2.43745
lowerneck 4.9693 -16.1694 -8.15631
upperneck -29.2945 -17.5622 28.6893
head -5.78414 -9.55828 11.5577
rclavicle 3.49861e-014 1.28465e-014
rhumerus 29.8083 -31.4917 -31.3586
rradius 120.171
rwrist -21.0719
rhand -20.4692 -42.9779
rfingers 7.12502
rthumb 5.88683 -72.8761
lclavicle 3.49861e-014 1.28465e-014
lhumerus 17.6671 45.8499 3.47378
lradius 109.029
lwrist 32.021
lhand -4.18644 -25.1365
lfingers 7.12502
lthumb 21.5749 3.68166
rfemur -0.0805895 16.7388 -8.69398
rtibia -2.26615e-014
rfoot 35.7953 -25.6315
rtoes 22.9835
lfemur -11.2523 -20.8135 3.23112
ltibia 18.5363
lfoot 37.5937 12.9815
ltoes 20.2073
